<?xml version="1.0" encoding="utf-8"?>
<svg viewBox="-5228.724 -363.757 2399.755 2148.078" width="2399.755" height="2148.078" xmlns="http://www.w3.org/2000/svg" xmlns:bx="https://boxy-svg.com">
  <g transform="matrix(4.85518, 0, 0, 4.600891, -5023.674805, 1863.685913)" style="">
    <title>LOGO_BASE</title>
    <rect x="-42.233" y="-484.133" width="494.267" height="466.883" rx="15" ry="15" style="fill-rule: evenodd; fill-opacity: 0.49; stroke: rgb(0, 0, 0); fill: rgb(255, 255, 255); stroke-width: 7px;"/>
    <path d="M 88.355 -342.22 Q 88.355 -335.276 85.689 -329.634 Q 83.023 -323.992 78.497 -319.9 Q 73.971 -315.808 67.833 -313.576 Q 61.695 -311.344 54.627 -311.344 Q 49.667 -311.344 44.707 -314.01 Q 39.747 -316.676 35.159 -322.504 L 44.335 -340.484 Q 45.203 -338.872 46.939 -337.198 Q 48.675 -335.524 50.845 -334.284 Q 53.015 -333.044 55.185 -332.238 Q 57.355 -331.432 59.091 -331.432 Q 60.579 -331.432 62.191 -331.928 Q 63.803 -332.424 65.167 -333.416 Q 66.531 -334.408 67.337 -335.71 Q 68.143 -337.012 68.143 -338.748 Q 68.143 -341.724 66.221 -344.266 Q 64.299 -346.808 61.447 -349.102 Q 58.595 -351.396 55.247 -353.752 Q 51.899 -356.108 49.109 -358.712 Q 46.319 -361.316 44.335 -364.54 Q 42.351 -367.764 42.351 -371.732 Q 42.351 -378.18 46.195 -383.76 Q 50.039 -389.34 55.805 -393.37 Q 61.571 -397.4 68.391 -399.756 Q 75.211 -402.112 81.287 -402.112 Q 84.635 -402.112 87.611 -401.306 Q 90.587 -400.5 92.757 -398.702 Q 94.927 -396.904 96.229 -394.176 Q 97.531 -391.448 97.531 -387.356 Q 97.531 -385.62 97.221 -383.884 Q 96.911 -382.148 96.663 -380.164 L 78.683 -374.956 Q 78.931 -375.948 79.117 -376.94 Q 79.303 -377.932 79.303 -378.924 Q 79.303 -382.644 78.001 -384.318 Q 76.699 -385.992 74.591 -385.992 Q 73.599 -385.992 72.173 -385.248 Q 70.747 -384.504 69.321 -383.326 Q 67.895 -382.148 66.903 -380.536 Q 65.911 -378.924 65.911 -377.064 Q 65.911 -374.088 67.585 -372.104 Q 69.259 -370.12 71.739 -368.384 Q 74.219 -366.648 77.133 -364.85 Q 80.047 -363.052 82.527 -360.2 Q 85.007 -357.348 86.681 -353.07 Q 88.355 -348.792 88.355 -342.22 Z" style="fill: rgb(255, 234, 97); stroke: rgb(0, 0, 0); stroke-linecap: round; stroke-linejoin: round; stroke-miterlimit: 18; stroke-width: 3px; white-space: pre;"/>
    <path d="M 138.32 -335.772 Q 136.584 -328.704 133.422 -323.744 Q 130.26 -318.784 125.982 -315.56 Q 121.704 -312.336 116.868 -310.848 Q 112.032 -309.36 107.196 -309.36 Q 104.344 -309.36 101.368 -310.29 Q 98.392 -311.22 96.036 -313.08 Q 93.68 -314.94 92.13 -317.792 Q 90.58 -320.644 90.58 -324.488 Q 90.58 -324.984 90.58 -325.48 Q 90.58 -325.976 90.704 -326.472 Q 91.2 -331.556 92.316 -338.748 Q 93.432 -345.94 94.672 -353.752 Q 95.912 -361.564 97.4 -369.438 Q 98.888 -377.312 100.066 -383.76 Q 101.244 -390.208 102.112 -394.486 Q 102.98 -398.764 103.228 -399.756 Q 105.832 -400.004 109.428 -400.376 Q 113.024 -400.748 116.124 -400.996 Q 119.968 -401.368 123.688 -401.74 Q 120.464 -386.736 117.984 -374.584 Q 116.868 -369.376 115.814 -364.168 Q 114.76 -358.96 113.83 -354.62 Q 112.9 -350.28 112.218 -347.118 Q 111.536 -343.956 111.102 -341.972 Q 110.668 -339.988 110.11 -336.95 Q 109.552 -333.912 109.552 -331.432 Q 109.552 -329.448 110.544 -328.146 Q 111.536 -326.844 113.024 -326.844 Q 115.132 -326.844 116.496 -328.518 Q 117.86 -330.192 118.79 -332.548 Q 119.72 -334.904 120.154 -337.322 Q 120.588 -339.74 120.96 -341.104 Q 121.704 -344.7 122.634 -349.102 Q 123.564 -353.504 124.494 -358.278 Q 125.424 -363.052 126.354 -368.012 Q 127.284 -372.972 128.152 -377.684 Q 130.26 -388.596 132.244 -400.252 L 151.092 -401.492 Q 151.092 -401.492 150.472 -398.268 Q 149.852 -395.044 148.86 -389.712 Q 147.868 -384.38 146.69 -377.56 Q 145.512 -370.74 144.024 -363.362 Q 142.536 -355.984 141.11 -348.854 Q 139.684 -341.724 138.32 -335.772 Z" style="fill: rgb(255, 234, 97); stroke: rgb(0, 0, 0); stroke-linecap: round; stroke-linejoin: round; stroke-miterlimit: 18; stroke-width: 3px; white-space: pre;"/>
    <path d="M 138.301 -311.468 Q 142.021 -328.208 145.369 -344.204 Q 146.733 -350.9 148.221 -358.34 Q 149.709 -365.78 151.073 -372.972 Q 152.437 -380.164 153.677 -386.86 Q 154.917 -393.556 155.785 -399.136 Q 159.381 -400.252 162.853 -401.058 Q 166.325 -401.864 169.983 -402.484 Q 173.641 -403.104 176.865 -403.104 Q 182.445 -403.104 186.227 -401.244 Q 190.009 -399.384 192.365 -396.222 Q 194.721 -393.06 195.713 -388.844 Q 196.705 -384.628 196.705 -379.792 Q 196.705 -372.848 194.163 -366.4 Q 191.621 -359.952 187.343 -354.93 Q 183.065 -349.908 177.547 -346.932 Q 172.029 -343.956 166.077 -343.956 L 164.713 -343.956 Q 163.721 -339.74 162.853 -334.78 Q 161.985 -329.82 161.365 -325.604 Q 160.497 -320.644 159.753 -315.684 Z M 172.897 -388.1 Q 171.533 -379.916 170.169 -372.6 Q 168.805 -365.284 167.193 -356.976 Q 169.177 -357.472 171.347 -359.27 Q 173.517 -361.068 175.377 -363.982 Q 177.237 -366.896 178.353 -370.74 Q 179.469 -374.584 179.469 -378.8 Q 179.469 -383.388 177.423 -385.744 Q 175.377 -388.1 172.897 -388.1 Z" style="fill: rgb(255, 234, 97); stroke: rgb(0, 0, 0); stroke-linecap: round; stroke-linejoin: round; stroke-miterlimit: 18; stroke-width: 3px; white-space: pre;"/>
    <path d="M 186.665 -311.468 L 202.909 -399.632 L 242.093 -402.98 Q 241.225 -400.252 240.605 -397.4 Q 239.985 -395.044 239.427 -392.502 Q 238.869 -389.96 238.497 -387.976 Q 237.257 -387.852 234.963 -387.79 Q 232.669 -387.728 230.065 -387.666 Q 227.461 -387.604 224.795 -387.604 Q 222.129 -387.604 220.145 -387.604 L 215.805 -365.408 Q 219.649 -365.656 222.997 -365.78 Q 225.725 -365.904 228.577 -365.904 Q 231.429 -365.904 232.793 -366.028 Q 232.297 -362.556 231.863 -359.208 Q 231.429 -355.86 230.809 -352.388 Q 229.569 -352.264 226.779 -352.202 Q 223.989 -352.14 221.137 -352.016 Q 217.913 -351.892 214.069 -351.768 L 209.853 -328.952 L 227.957 -331.804 L 226.717 -317.668 Z" style="fill: rgb(255, 234, 97); stroke: rgb(0, 0, 0); stroke-linecap: round; stroke-linejoin: round; stroke-miterlimit: 18; stroke-width: 3px; white-space: pre;"/>
    <path d="M 228.451 -311.468 Q 231.799 -327.96 234.899 -343.708 Q 236.015 -350.404 237.379 -357.658 Q 238.743 -364.912 239.921 -372.042 Q 241.099 -379.172 242.153 -385.806 Q 243.207 -392.44 243.827 -397.896 Q 250.895 -400.128 259.079 -401.182 Q 267.263 -402.236 275.323 -402.236 Q 280.159 -402.236 283.321 -401.12 Q 286.483 -400.004 288.281 -397.958 Q 290.079 -395.912 290.823 -393.184 Q 291.567 -390.456 291.567 -387.108 Q 291.567 -382.148 289.831 -377.374 Q 288.095 -372.6 285.181 -368.322 Q 282.267 -364.044 278.485 -360.51 Q 274.703 -356.976 270.363 -354.744 Q 272.595 -349.784 275.137 -343.894 Q 277.679 -338.004 279.911 -332.672 Q 282.391 -326.472 284.995 -320.272 L 265.775 -313.576 Q 263.295 -321.512 261.311 -328.456 Q 260.443 -331.308 259.575 -334.346 Q 258.707 -337.384 257.963 -340.112 Q 257.219 -342.84 256.723 -345.01 Q 256.227 -347.18 256.103 -348.544 L 254.491 -348.048 Q 253.747 -344.08 252.693 -338.748 Q 251.639 -333.416 250.771 -328.456 Q 249.655 -322.628 248.539 -316.676 Z M 257.591 -365.284 Q 259.947 -365.532 263.357 -367.268 Q 266.767 -369.004 269.867 -371.422 Q 272.967 -373.84 275.199 -376.444 Q 277.431 -379.048 277.431 -381.032 Q 277.431 -382.396 276.563 -383.202 Q 275.695 -384.008 274.145 -384.442 Q 272.595 -384.876 270.735 -385 Q 268.875 -385.124 266.891 -385.124 Q 265.527 -385.124 264.101 -385.062 Q 262.675 -385 261.559 -385 Z" style="fill: rgb(255, 234, 97); stroke: rgb(0, 0, 0); stroke-linecap: round; stroke-linejoin: round; stroke-miterlimit: 18; stroke-width: 3px; white-space: pre;"/>
    <text style="white-space: pre; fill: rgb(51, 51, 51); font-family: Arial, sans-serif; font-size: 29.9px;" x="419.748" y="-148.051"> </text>
    <text style="white-space: pre; fill: rgb(51, 51, 51); font-family: Arial, sans-serif; font-size: 29.9px;" x="337.424" y="-142.705"> </text>
    <path d="M 124.62 -245.314 Q 121.644 -238.494 117.986 -233.472 Q 114.328 -228.45 110.298 -225.04 Q 106.268 -221.63 102.176 -220.018 Q 98.084 -218.406 94.24 -218.406 Q 90.396 -218.406 87.234 -220.142 Q 84.072 -221.878 81.716 -225.35 Q 79.36 -228.822 77.934 -233.906 Q 76.508 -238.99 76.508 -245.81 Q 76.508 -257.466 79.732 -268.812 Q 82.956 -280.158 88.784 -289.21 Q 94.612 -298.262 102.61 -303.78 Q 110.608 -309.298 120.28 -309.298 Q 123.256 -309.298 125.984 -308.058 Q 128.712 -306.818 130.696 -304.586 Q 132.68 -302.354 133.858 -299.13 Q 135.036 -295.906 135.036 -291.938 Q 135.036 -291.194 135.036 -290.388 Q 135.036 -289.582 134.912 -288.714 L 118.668 -284.374 Q 117.18 -287.474 115.196 -287.474 Q 113.212 -287.474 111.042 -285.18 Q 108.872 -282.886 106.764 -279.228 Q 104.656 -275.57 102.672 -271.044 Q 100.688 -266.518 99.2 -261.93 Q 97.712 -257.342 96.782 -253.188 Q 95.852 -249.034 95.852 -246.43 Q 95.852 -242.462 96.906 -240.85 Q 97.96 -239.238 99.696 -239.238 Q 101.06 -239.238 102.796 -240.292 Q 104.532 -241.346 106.02 -243.02 Q 107.508 -244.694 108.748 -246.802 Q 109.988 -248.91 110.484 -251.018 L 124.62 -245.314 Z" style="fill: rgb(255, 234, 97); stroke: rgb(0, 0, 0); stroke-linecap: round; stroke-linejoin: round; stroke-miterlimit: 18; stroke-width: 3px; white-space: pre;"/>
    <path d="M 123.992 -218.406 Q 127.464 -235.766 130.688 -252.258 Q 131.928 -259.326 133.292 -266.952 Q 134.656 -274.578 135.834 -282.018 Q 137.012 -289.458 138.066 -296.464 Q 139.12 -303.47 139.74 -309.174 Q 142.592 -309.05 145.01 -308.864 Q 147.428 -308.678 149.784 -308.554 Q 152.14 -308.43 154.558 -308.368 Q 156.976 -308.306 159.828 -308.306 Q 157.72 -299.502 155.674 -290.698 Q 153.628 -281.894 151.892 -272.966 L 164.168 -274.33 Q 165.904 -283.134 167.268 -291.38 Q 168.632 -299.626 170.864 -308.43 Q 173.716 -308.926 177.188 -309.236 Q 180.66 -309.546 183.636 -309.794 Q 186.612 -310.042 188.658 -310.228 Q 190.704 -310.414 190.704 -310.414 Q 188.968 -304.834 187.418 -298.2 Q 185.868 -291.566 184.38 -284.436 Q 182.892 -277.306 181.528 -269.99 Q 180.164 -262.674 179.048 -256.102 Q 176.32 -240.354 173.964 -223.862 L 154.62 -221.63 Q 156.232 -229.07 157.472 -236.138 Q 158.712 -242.09 160.014 -248.538 Q 161.316 -254.986 162.06 -259.574 L 150.032 -258.458 Q 149.164 -253.746 147.986 -247.546 Q 146.808 -241.346 145.816 -235.766 Q 144.452 -229.07 143.088 -222.374 Z" style="fill: rgb(255, 234, 97); stroke: rgb(0, 0, 0); stroke-linecap: round; stroke-linejoin: round; stroke-miterlimit: 18; stroke-width: 3px; white-space: pre;"/>
    <path d="M 178.664 -218.53 L 194.908 -306.694 L 234.092 -310.042 Q 233.224 -307.314 232.604 -304.462 Q 231.984 -302.106 231.426 -299.564 Q 230.868 -297.022 230.496 -295.038 Q 229.256 -294.914 226.962 -294.852 Q 224.668 -294.79 222.064 -294.728 Q 219.46 -294.666 216.794 -294.666 Q 214.128 -294.666 212.144 -294.666 L 207.804 -272.47 Q 211.648 -272.718 214.996 -272.842 Q 217.724 -272.966 220.576 -272.966 Q 223.428 -272.966 224.792 -273.09 Q 224.296 -269.618 223.862 -266.27 Q 223.428 -262.922 222.808 -259.45 Q 221.568 -259.326 218.778 -259.264 Q 215.988 -259.202 213.136 -259.078 Q 209.912 -258.954 206.068 -258.83 L 201.852 -236.014 L 219.956 -238.866 L 218.716 -224.73 Z" style="fill: rgb(255, 234, 97); stroke: rgb(0, 0, 0); stroke-linecap: round; stroke-linejoin: round; stroke-miterlimit: 18; stroke-width: 3px; white-space: pre;"/>
    <path d="M 274.886 -249.282 Q 274.886 -242.338 272.22 -236.696 Q 269.554 -231.054 265.028 -226.962 Q 260.502 -222.87 254.364 -220.638 Q 248.226 -218.406 241.158 -218.406 Q 236.198 -218.406 231.238 -221.072 Q 226.278 -223.738 221.69 -229.566 L 230.866 -247.546 Q 231.734 -245.934 233.47 -244.26 Q 235.206 -242.586 237.376 -241.346 Q 239.546 -240.106 241.716 -239.3 Q 243.886 -238.494 245.622 -238.494 Q 247.11 -238.494 248.722 -238.99 Q 250.334 -239.486 251.698 -240.478 Q 253.062 -241.47 253.868 -242.772 Q 254.674 -244.074 254.674 -245.81 Q 254.674 -248.786 252.752 -251.328 Q 250.83 -253.87 247.978 -256.164 Q 245.126 -258.458 241.778 -260.814 Q 238.43 -263.17 235.64 -265.774 Q 232.85 -268.378 230.866 -271.602 Q 228.882 -274.826 228.882 -278.794 Q 228.882 -285.242 232.726 -290.822 Q 236.57 -296.402 242.336 -300.432 Q 248.102 -304.462 254.922 -306.818 Q 261.742 -309.174 267.818 -309.174 Q 271.166 -309.174 274.142 -308.368 Q 277.118 -307.562 279.288 -305.764 Q 281.458 -303.966 282.76 -301.238 Q 284.062 -298.51 284.062 -294.418 Q 284.062 -292.682 283.752 -290.946 Q 283.442 -289.21 283.194 -287.226 L 265.214 -282.018 Q 265.462 -283.01 265.648 -284.002 Q 265.834 -284.994 265.834 -285.986 Q 265.834 -289.706 264.532 -291.38 Q 263.23 -293.054 261.122 -293.054 Q 260.13 -293.054 258.704 -292.31 Q 257.278 -291.566 255.852 -290.388 Q 254.426 -289.21 253.434 -287.598 Q 252.442 -285.986 252.442 -284.126 Q 252.442 -281.15 254.116 -279.166 Q 255.79 -277.182 258.27 -275.446 Q 260.75 -273.71 263.664 -271.912 Q 266.578 -270.114 269.058 -267.262 Q 271.538 -264.41 273.212 -260.132 Q 274.886 -255.854 274.886 -249.282 Z" style="fill: rgb(255, 234, 97); stroke: rgb(0, 0, 0); stroke-linecap: round; stroke-linejoin: round; stroke-miterlimit: 18; stroke-width: 3px; white-space: pre;"/>
    <path d="M 328.198 -249.282 Q 328.198 -242.338 325.532 -236.696 Q 322.866 -231.054 318.34 -226.962 Q 313.814 -222.87 307.676 -220.638 Q 301.538 -218.406 294.47 -218.406 Q 289.51 -218.406 284.55 -221.072 Q 279.59 -223.738 275.002 -229.566 L 284.178 -247.546 Q 285.046 -245.934 286.782 -244.26 Q 288.518 -242.586 290.688 -241.346 Q 292.858 -240.106 295.028 -239.3 Q 297.198 -238.494 298.934 -238.494 Q 300.422 -238.494 302.034 -238.99 Q 303.646 -239.486 305.01 -240.478 Q 306.374 -241.47 307.18 -242.772 Q 307.986 -244.074 307.986 -245.81 Q 307.986 -248.786 306.064 -251.328 Q 304.142 -253.87 301.29 -256.164 Q 298.438 -258.458 295.09 -260.814 Q 291.742 -263.17 288.952 -265.774 Q 286.162 -268.378 284.178 -271.602 Q 282.194 -274.826 282.194 -278.794 Q 282.194 -285.242 286.038 -290.822 Q 289.882 -296.402 295.648 -300.432 Q 301.414 -304.462 308.234 -306.818 Q 315.054 -309.174 321.13 -309.174 Q 324.478 -309.174 327.454 -308.368 Q 330.43 -307.562 332.6 -305.764 Q 334.77 -303.966 336.072 -301.238 Q 337.374 -298.51 337.374 -294.418 Q 337.374 -292.682 337.064 -290.946 Q 336.754 -289.21 336.506 -287.226 L 318.526 -282.018 Q 318.774 -283.01 318.96 -284.002 Q 319.146 -284.994 319.146 -285.986 Q 319.146 -289.706 317.844 -291.38 Q 316.542 -293.054 314.434 -293.054 Q 313.442 -293.054 312.016 -292.31 Q 310.59 -291.566 309.164 -290.388 Q 307.738 -289.21 306.746 -287.598 Q 305.754 -285.986 305.754 -284.126 Q 305.754 -281.15 307.428 -279.166 Q 309.102 -277.182 311.582 -275.446 Q 314.062 -273.71 316.976 -271.912 Q 319.89 -270.114 322.37 -267.262 Q 324.85 -264.41 326.524 -260.132 Q 328.198 -255.854 328.198 -249.282 Z" style="fill: rgb(255, 234, 97); stroke: rgb(0, 0, 0); stroke-linecap: round; stroke-linejoin: round; stroke-miterlimit: 18; stroke-width: 3px; white-space: pre;"/>
    <path d="M 115.336 -78.107 Q 115.336 -73.023 113.228 -68.683 Q 111.12 -64.343 107.524 -60.809 Q 103.928 -57.275 99.154 -54.609 Q 94.38 -51.943 89.11 -50.145 Q 83.84 -48.347 78.322 -47.417 Q 72.804 -46.487 67.72 -46.487 Q 63.132 -46.487 59.164 -47.231 Q 65.116 -68.931 68.65 -90.941 Q 72.184 -112.951 75.408 -135.271 Q 81.856 -136.635 88.8 -137.689 Q 95.744 -138.743 103.184 -138.743 Q 106.284 -138.743 109.756 -137.999 Q 113.228 -137.255 116.08 -135.271 Q 118.932 -133.287 120.854 -130.063 Q 122.776 -126.839 122.776 -121.879 Q 122.776 -117.167 121.226 -113.075 Q 119.676 -108.983 117.258 -105.635 Q 114.84 -102.287 111.74 -99.869 Q 108.64 -97.451 105.416 -96.211 Q 107.028 -95.343 108.764 -93.731 Q 110.5 -92.119 111.988 -89.949 Q 113.476 -87.779 114.406 -84.803 Q 115.336 -81.827 115.336 -78.107 Z M 86.94 -91.003 Q 86.444 -88.027 86.01 -85.733 Q 85.576 -83.439 85.204 -81.331 Q 84.832 -79.223 84.398 -76.929 Q 83.964 -74.635 83.468 -71.535 Q 85.824 -71.783 88.8 -72.403 Q 91.776 -73.023 94.504 -74.325 Q 97.232 -75.627 99.092 -77.797 Q 100.952 -79.967 100.952 -83.067 Q 100.952 -85.299 99.774 -86.787 Q 98.596 -88.275 96.798 -89.267 Q 95 -90.259 92.892 -90.693 Q 90.784 -91.127 88.924 -91.127 Q 88.304 -91.127 87.87 -91.127 Q 87.436 -91.127 86.94 -91.003 Z M 92.52 -121.011 Q 92.272 -119.647 91.962 -117.787 Q 91.652 -115.927 91.28 -113.881 Q 90.908 -111.835 90.474 -109.851 Q 90.04 -107.867 89.792 -106.379 Q 92.52 -106.875 95.248 -107.743 Q 97.976 -108.611 100.146 -109.665 Q 102.316 -110.719 103.618 -111.959 Q 104.92 -113.199 104.92 -114.687 Q 104.92 -116.547 103.804 -117.725 Q 102.688 -118.903 100.89 -119.647 Q 99.092 -120.391 97.17 -120.701 Q 95.248 -121.011 93.76 -121.011 L 92.52 -121.011 Z" transform="matrix(1.225683, 0, 0, 1.305436, 22.690832, -34.203983)" style="fill: rgb(255, 234, 97); stroke: rgb(0, 0, 0); stroke-linecap: round; stroke-linejoin: round; stroke-miterlimit: 18; stroke-width: 3px; white-space: pre;"/>
    <path d="M 146.575 -50.951 Q 142.731 -50.951 138.453 -50.703 Q 134.175 -50.455 129.835 -49.959 Q 125.495 -49.463 121.341 -48.657 Q 117.187 -47.851 113.839 -46.735 Q 114.583 -52.315 115.575 -59.135 Q 116.567 -65.955 117.869 -73.271 Q 119.171 -80.587 120.473 -88.027 Q 121.775 -95.467 123.139 -102.287 Q 126.239 -118.531 129.711 -135.395 L 151.411 -138.247 Q 148.063 -123.863 144.963 -110.223 Q 143.599 -104.395 142.235 -98.133 Q 140.871 -91.871 139.631 -85.919 Q 138.391 -79.967 137.399 -74.387 Q 136.407 -68.807 135.787 -64.467 Q 138.887 -64.715 142.421 -64.777 Q 145.955 -64.839 148.683 -64.839 Q 148.807 -62.483 149.055 -60.189 Q 149.303 -57.895 149.613 -56.035 Q 149.923 -54.175 150.109 -52.749 Q 150.295 -51.323 150.419 -50.827 Q 149.427 -50.827 148.497 -50.889 Q 147.567 -50.951 146.575 -50.951 Z" transform="matrix(1.225683, 0, 0, 1.305436, 22.690832, -34.203983)" style="fill: rgb(255, 234, 97); stroke: rgb(0, 0, 0); stroke-linecap: round; stroke-linejoin: round; stroke-miterlimit: 18; stroke-width: 3px; white-space: pre;"/>
    <path d="M 170.884 -49.463 Q 169.768 -49.463 166.482 -49.153 Q 163.196 -48.843 159.724 -48.409 Q 156.252 -47.975 153.462 -47.603 Q 150.672 -47.231 150.424 -47.107 Q 151.664 -52.439 152.966 -58.949 Q 154.268 -65.459 155.632 -72.589 Q 156.996 -79.719 158.236 -87.035 Q 159.476 -94.351 160.592 -101.171 Q 163.196 -117.043 165.8 -133.783 L 185.144 -136.883 Q 182.292 -120.267 179.564 -104.271 Q 178.448 -97.451 177.27 -90.135 Q 176.092 -82.819 174.914 -75.627 Q 173.736 -68.435 172.744 -61.677 Q 171.752 -54.919 170.884 -49.463 Z" transform="matrix(1.225683, 0, 0, 1.305436, 22.690832, -34.203983)" style="fill: rgb(255, 234, 97); stroke: rgb(0, 0, 0); stroke-linecap: round; stroke-linejoin: round; stroke-miterlimit: 18; stroke-width: 3px; white-space: pre;"/>
    <path d="M 186.002 -46.859 Q 188.854 -60.499 191.458 -73.767 Q 192.574 -79.347 193.69 -85.423 Q 194.806 -91.499 195.86 -97.389 Q 196.914 -103.279 197.72 -108.797 Q 198.526 -114.315 199.146 -118.903 Q 196.294 -119.275 193.38 -119.151 Q 190.466 -119.027 187.614 -119.895 Q 187.738 -121.879 187.738 -124.483 Q 187.738 -127.087 187.862 -129.691 Q 187.986 -132.543 188.11 -135.767 Q 191.334 -135.519 194.558 -135.395 Q 197.782 -135.271 201.006 -135.271 Q 207.33 -135.271 213.22 -135.581 Q 219.11 -135.891 224.132 -136.325 Q 229.154 -136.759 233.99 -137.379 L 232.626 -130.683 Q 232.006 -127.831 231.448 -124.855 Q 230.89 -121.879 230.394 -119.771 Q 227.666 -119.027 224.876 -118.717 Q 222.086 -118.407 219.358 -117.911 Q 218.49 -113.695 217.498 -108.549 Q 216.506 -103.403 215.576 -97.885 Q 214.646 -92.367 213.778 -86.663 Q 212.91 -80.959 212.042 -75.751 Q 210.058 -63.475 208.322 -50.331 Z" transform="matrix(1.225683, 0, 0, 1.305436, 22.690832, -34.203983)" style="fill: rgb(255, 234, 97); stroke: rgb(0, 0, 0); stroke-linecap: round; stroke-linejoin: round; stroke-miterlimit: 18; stroke-width: 3px; white-space: pre;"/>
    <path d="M 273.18 -51.943 Q 272.064 -51.943 268.468 -51.819 Q 264.872 -51.695 259.974 -51.447 Q 255.076 -51.199 249.372 -50.827 Q 243.668 -50.455 238.212 -50.021 Q 232.756 -49.587 228.106 -49.091 Q 223.456 -48.595 220.728 -48.099 L 220.852 -66.203 L 256.068 -114.191 Q 253.96 -114.191 250.116 -113.757 Q 246.272 -113.323 242.366 -112.827 Q 238.46 -112.331 235.608 -111.835 L 232.632 -111.587 L 234.988 -131.055 L 285.704 -134.651 L 282.48 -117.539 L 248.628 -69.427 Q 251.108 -69.427 255.262 -69.675 Q 259.416 -69.923 263.88 -70.171 Q 268.344 -70.419 273.552 -70.791 L 273.18 -51.943 Z" transform="matrix(1.225683, 0, 0, 1.305436, 22.690832, -34.203983)" style="fill: rgb(255, 234, 97); stroke: rgb(0, 0, 0); stroke-linecap: round; stroke-linejoin: round; stroke-miterlimit: 18; stroke-width: 3px; white-space: pre;"/>
    <text style="white-space: pre; fill: rgb(51, 51, 51); font-family: Arial, sans-serif; font-size: 29.9px;" x="373.775" y="-223.96"> </text>
    <g style="opacity: 1; fill: none; fill-opacity: 1; fill-rule: evenodd; stroke: rgb(0, 0, 0); stroke-width: 1.5; stroke-linecap: round; stroke-linejoin: round; stroke-miterlimit: 4; stroke-dasharray: none; stroke-opacity: 1;" transform="matrix(1.690976, 1.522467, -1.611863, 1.524151, 375.026917, -355.897339)">
      <path d="M 22,10 C 32.5,11 38.5,18 38,39 L 15,39 C 15,30 25,32.5 23,18" style="fill:#ffffff; stroke:#000000;"/>
      <path d="M 24,18 C 24.38,20.91 18.45,25.37 16,27 C 13,29 13.18,31.34 11,31 C 9.958,30.06 12.41,27.96 11,28 C 10,28 11.19,29.23 10,30 C 9,30 5.997,31 6,26 C 6,24 12,14 12,14 C 12,14 13.89,12.1 14,10.5 C 13.27,9.506 13.5,8.5 13.5,7.5 C 14.5,6.5 16.5,10 16.5,10 L 18.5,10 C 18.5,10 19.28,8.008 21,7 C 22,7 22,10 22,10" style="fill:#ffffff; stroke:#000000;"/>
      <path d="M 9.5 25.5 A 0.5 0.5 0 1 1 8.5,25.5 A 0.5 0.5 0 1 1 9.5 25.5 z" style="fill:#000000; stroke:#000000;"/>
      <path d="M 15 15.5 A 0.5 1.5 0 1 1  14,15.5 A 0.5 1.5 0 1 1  15 15.5 z" transform="matrix(0.866,0.5,-0.5,0.866,9.693,-5.173)" style="fill:#000000; stroke:#000000;"/>
    </g>
    <g style="opacity: 1; fill: none; fill-rule: evenodd; fill-opacity: 1; stroke: rgb(0, 0, 0); stroke-width: 1.5; stroke-linecap: round; stroke-linejoin: round; stroke-miterlimit: 4; stroke-dasharray: none; stroke-opacity: 1;" transform="matrix(1.148426, -1.837865, 1.885012, 1.177886, -8.796612, -177.809097)">
      <g style="fill:#000000; stroke:#000000; stroke-linecap:butt;">
        <path d="M 9,36 C 12.39,35.03 19.11,36.43 22.5,34 C 25.89,36.43 32.61,35.03 36,36 C 36,36 37.65,36.54 39,38 C 38.32,38.97 37.35,38.99 36,38.5 C 32.61,37.53 25.89,38.96 22.5,37.5 C 19.11,38.96 12.39,37.53 9,38.5 C 7.646,38.99 6.677,38.97 6,38 C 7.354,36.06 9,36 9,36 z"/>
        <path d="M 15,32 C 17.5,34.5 27.5,34.5 30,32 C 30.5,30.5 30,30 30,30 C 30,27.5 27.5,26 27.5,26 C 33,24.5 33.5,14.5 22.5,10.5 C 11.5,14.5 12,24.5 17.5,26 C 17.5,26 15,27.5 15,30 C 15,30 14.5,30.5 15,32 z"/>
        <path d="M 25 8 A 2.5 2.5 0 1 1  20,8 A 2.5 2.5 0 1 1  25 8 z"/>
      </g>
      <path d="M 17.5,26 L 27.5,26 M 15,30 L 30,30 M 22.5,15.5 L 22.5,20.5 M 20,18 L 25,18" style="fill:none; stroke:#ffffff; stroke-linejoin:miter;"/>
    </g>
    <path style="fill: rgb(255, 255, 255); stroke: rgb(0, 0, 0); stroke-width: 4px; fill-opacity: 0;" d="M 382.084 -141.828 C 412.816 -89.81 354.568 -60.783 345.733 -74.911"/>
    <path style="fill: rgb(255, 255, 255); stroke: rgb(0, 0, 0); stroke-width: 4px; fill-opacity: 0;" d="M 400.486 -107.639 C 426.429 -72.426 377.257 -52.776 369.799 -62.34" transform="matrix(0.994522, 0.104528, -0.104528, 0.994522, -6.627374, -41.10867)"/>
    <path style="fill: rgb(255, 255, 255); stroke: rgb(0, 0, 0); stroke-width: 4px; fill-opacity: 0;" d="M 76.672 -424.234 C 76.672 -397.419 50.338 -360.353 15.104 -379.289" transform="matrix(-1, 0, 0, -1, 91.77586, -798.339995)"/>
    <path style="fill: rgb(255, 255, 255); stroke: rgb(0, 0, 0); stroke-width: 4px; fill-opacity: 0;" d="M 43.277 -445.078 C 46.182 -427.472 35.999 -389.177 1.21 -406.239" transform="matrix(-1, 0, 0, -1, 44.955769, -847.037851)"/>
    <path d="M 423.854 -417.834 C 412.792 -417.834 409.843 -426.687 395.834 -426.687 C 386.797 -426.687 381.268 -417.586 381.268 -417.586 L 381.268 -335.083 C 381.268 -333.454 382.258 -332.132 383.481 -332.132 C 384.701 -332.132 385.692 -333.454 385.692 -335.083 L 385.692 -372.697 C 388.025 -374.703 391.248 -376.522 395.28 -376.522 C 409.291 -376.522 413.346 -367.669 424.407 -367.669 C 435.469 -367.669 443.211 -376.522 443.211 -376.522 L 443.211 -426.687 C 443.211 -426.687 434.915 -417.834 423.854 -417.834 Z M 438.787 -379.528 C 436.286 -377.354 430.99 -373.571 424.407 -373.571 C 420.057 -373.571 417.088 -375.163 413.329 -377.179 C 408.749 -379.633 403.554 -382.424 395.28 -382.424 C 391.5 -382.424 388.291 -381.155 385.692 -379.458 L 385.692 -415.188 C 387.359 -417.209 390.988 -420.785 395.834 -420.785 C 402.339 -420.785 406.003 -418.678 409.881 -416.452 C 413.743 -414.231 417.738 -411.932 423.854 -411.932 C 429.747 -411.932 434.924 -414.108 438.787 -416.444 L 438.787 -379.531 L 438.787 -379.528 Z" style="paint-order: stroke; stroke: rgb(250, 199, 199);" transform="matrix(0.681998, 0.731354, -0.731354, 0.681998, -215.829924, -426.213872)" bx:origin="0.015 -0.366"/>
    <path style="stroke: rgb(0, 0, 0); fill: rgb(222, 74, 74);" d="M 384.36 -415.226 C 387.123 -425.293 402.558 -425.036 414.231 -417.947 C 421.113 -411.108 438.538 -414.421 440.054 -421.703 L 439.7 -380.976 C 439.497 -374.552 426.516 -366.561 413.734 -374.881 C 396.559 -386.878 383.85 -380.818 384.258 -374.127 C 384.258 -374.127 383.249 -416.683 384.36 -415.226 Z" transform="matrix(0.681998, 0.731354, -0.731354, 0.681998, -215.823002, -426.220505)" bx:origin="-0.029 -0.739"/>
  </g>
</svg>