<?xml version="1.0" encoding="utf-8"?>
<svg viewBox="621.321 28.417 500 500" width="1000" height="1000" xmlns="http://www.w3.org/2000/svg">
  <g transform="matrix(7.8125, 0, 0, 7.8125, 461.437988, -1646.122437)" style="">
    <title>BONUS_SYMBOL</title>
    <rect x="20.465" y="214.341" width="64" height="64" rx="15" ry="15" style="fill-rule: evenodd; fill-opacity: 0.71; stroke-width: 2px; fill: rgb(255, 234, 97); stroke: rgb(238, 209, 136);"/>
    <rect x="87.836" y="260.078" style="fill: rgb(132, 97, 10);" width="40.547" height="36.351" transform="matrix(0.956305, 0.292372, -0.292372, 0.956305, 33.621777, -55.25885)"/>
    <rect x="89.863" y="261.896" style="fill: rgb(36, 36, 36);" width="36.492" height="32.716" transform="matrix(0.956305, 0.292372, -0.292372, 0.956305, 33.621777, -55.25885)"/>
    <g transform="matrix(0.121173, 0.037046, -0.033213, 0.108633, 33.136425, 205.15062)" style="">
      <rect x="112" y="112" style="fill:#F5F5F5;" width="24" height="24"/>
      <rect x="160" y="112" style="fill:#F5F5F5;" width="24" height="24"/>
      <rect x="208" y="112" style="fill:#F5F5F5;" width="24" height="24"/>
      <rect x="256" y="112" style="fill:#F5F5F5;" width="24" height="24"/>
      <rect x="304" y="112" style="fill:#F5F5F5;" width="24" height="24"/>
      <rect x="352" y="112" style="fill:#F5F5F5;" width="24" height="24"/>
      <rect x="136" y="136" style="fill:#F5F5F5;" width="24" height="24"/>
      <rect x="184" y="136" style="fill:#F5F5F5;" width="24" height="24"/>
      <rect x="232" y="136" style="fill:#F5F5F5;" width="24" height="24"/>
      <rect x="280" y="136" style="fill:#F5F5F5;" width="24" height="24"/>
      <rect x="328" y="136" style="fill:#F5F5F5;" width="24" height="24"/>
      <rect x="376" y="136" style="fill:#F5F5F5;" width="24" height="24"/>
      <rect x="112" y="160" style="fill:#F5F5F5;" width="24" height="24"/>
      <rect x="160" y="160" style="fill:#F5F5F5;" width="24" height="24"/>
      <rect x="208" y="160" style="fill:#F5F5F5;" width="24" height="24"/>
      <rect x="256" y="160" style="fill:#F5F5F5;" width="24" height="24"/>
      <rect x="304" y="160" style="fill:#F5F5F5;" width="24" height="24"/>
      <rect x="352" y="160" style="fill:#F5F5F5;" width="24" height="24"/>
      <rect x="136" y="184" style="fill:#F5F5F5;" width="24" height="24"/>
      <rect x="184" y="184" style="fill:#F5F5F5;" width="24" height="24"/>
      <rect x="232" y="184" style="fill:#F5F5F5;" width="24" height="24"/>
      <rect x="280" y="184" style="fill:#F5F5F5;" width="24" height="24"/>
      <rect x="328" y="184" style="fill:#F5F5F5;" width="24" height="24"/>
      <rect x="376" y="184" style="fill:#F5F5F5;" width="24" height="24"/>
      <rect x="112" y="208" style="fill:#F5F5F5;" width="24" height="24"/>
      <rect x="160" y="208" style="fill:#F5F5F5;" width="24" height="24"/>
      <rect x="208" y="208" style="fill:#F5F5F5;" width="24" height="24"/>
      <rect x="256" y="208" style="fill:#F5F5F5;" width="24" height="24"/>
      <rect x="304" y="208" style="fill:#F5F5F5;" width="24" height="24"/>
      <rect x="352" y="208" style="fill:#F5F5F5;" width="24" height="24"/>
      <rect x="136" y="232" style="fill:#F5F5F5;" width="24" height="24"/>
      <rect x="184" y="232" style="fill:#F5F5F5;" width="24" height="24"/>
      <rect x="232" y="232" style="fill:#F5F5F5;" width="24" height="24"/>
      <rect x="280" y="232" style="fill:#F5F5F5;" width="24" height="24"/>
      <rect x="328" y="232" style="fill:#F5F5F5;" width="24" height="24"/>
      <rect x="376" y="232" style="fill:#F5F5F5;" width="24" height="24"/>
      <rect x="112" y="256" style="fill:#F5F5F5;" width="24" height="24"/>
      <rect x="160" y="256" style="fill:#F5F5F5;" width="24" height="24"/>
      <rect x="208" y="256" style="fill:#F5F5F5;" width="24" height="24"/>
      <rect x="256" y="256" style="fill:#F5F5F5;" width="24" height="24"/>
      <rect x="304" y="256" style="fill:#F5F5F5;" width="24" height="24"/>
      <rect x="352" y="256" style="fill:#F5F5F5;" width="24" height="24"/>
      <rect x="136" y="280" style="fill:#F5F5F5;" width="24" height="24"/>
      <rect x="184" y="280" style="fill:#F5F5F5;" width="24" height="24"/>
      <rect x="232" y="280" style="fill:#F5F5F5;" width="24" height="24"/>
      <rect x="280" y="280" style="fill:#F5F5F5;" width="24" height="24"/>
      <rect x="328" y="280" style="fill:#F5F5F5;" width="24" height="24"/>
      <rect x="376" y="280" style="fill:#F5F5F5;" width="24" height="24"/>
      <rect x="112" y="304" style="fill:#F5F5F5;" width="24" height="24"/>
      <rect x="160" y="304" style="fill:#F5F5F5;" width="24" height="24"/>
      <rect x="208" y="304" style="fill:#F5F5F5;" width="24" height="24"/>
      <rect x="256" y="304" style="fill:#F5F5F5;" width="24" height="24"/>
      <rect x="304" y="304" style="fill:#F5F5F5;" width="24" height="24"/>
      <rect x="352" y="304" style="fill:#F5F5F5;" width="24" height="24"/>
      <rect x="136" y="328" style="fill:#F5F5F5;" width="24" height="24"/>
      <rect x="184" y="328" style="fill:#F5F5F5;" width="24" height="24"/>
      <rect x="232" y="328" style="fill:#F5F5F5;" width="24" height="24"/>
      <rect x="280" y="328" style="fill:#F5F5F5;" width="24" height="24"/>
      <rect x="328" y="328" style="fill:#F5F5F5;" width="24" height="24"/>
      <rect x="376" y="328" style="fill:#F5F5F5;" width="24" height="24"/>
      <rect x="112" y="352" style="fill:#F5F5F5;" width="24" height="24"/>
      <rect x="160" y="352" style="fill:#F5F5F5;" width="24" height="24"/>
      <rect x="208" y="352" style="fill:#F5F5F5;" width="24" height="24"/>
      <rect x="256" y="352" style="fill:#F5F5F5;" width="24" height="24"/>
      <rect x="304" y="352" style="fill:#F5F5F5;" width="24" height="24"/>
      <rect x="352" y="352" style="fill:#F5F5F5;" width="24" height="24"/>
      <rect x="136" y="376" style="fill:#F5F5F5;" width="24" height="24"/>
      <rect x="184" y="376" style="fill:#F5F5F5;" width="24" height="24"/>
      <rect x="232" y="376" style="fill:#F5F5F5;" width="24" height="24"/>
      <rect x="280" y="376" style="fill:#F5F5F5;" width="24" height="24"/>
      <rect x="328" y="376" style="fill:#F5F5F5;" width="24" height="24"/>
      <rect x="376" y="376" style="fill:#F5F5F5;" width="24" height="24"/>
    </g>
    <path d="M 324.986 310.46 Q 324.986 311.649 324.493 312.664 Q 324 313.679 323.159 314.506 Q 322.318 315.332 321.201 315.956 Q 320.085 316.579 318.852 317 Q 317.62 317.42 316.329 317.638 Q 315.039 317.855 313.85 317.855 Q 312.777 317.855 311.849 317.681 Q 313.241 312.606 314.067 307.459 Q 314.894 302.311 315.648 297.091 Q 317.156 296.772 318.78 296.526 Q 320.404 296.279 322.144 296.279 Q 322.869 296.279 323.681 296.453 Q 324.493 296.627 325.16 297.091 Q 325.827 297.555 326.276 298.309 Q 326.726 299.063 326.726 300.223 Q 326.726 301.325 326.363 302.282 Q 326.001 303.239 325.435 304.022 Q 324.87 304.805 324.145 305.371 Q 323.42 305.936 322.666 306.226 Q 323.043 306.429 323.449 306.806 Q 323.855 307.183 324.203 307.691 Q 324.551 308.198 324.768 308.894 Q 324.986 309.59 324.986 310.46 Z M 318.345 307.444 Q 318.229 308.14 318.127 308.677 Q 318.026 309.213 317.939 309.706 Q 317.852 310.199 317.75 310.736 Q 317.649 311.272 317.533 311.997 Q 318.084 311.939 318.78 311.794 Q 319.476 311.649 320.114 311.345 Q 320.752 311.04 321.187 310.533 Q 321.622 310.025 321.622 309.3 Q 321.622 308.778 321.346 308.43 Q 321.071 308.082 320.65 307.85 Q 320.23 307.618 319.737 307.517 Q 319.244 307.415 318.809 307.415 Q 318.664 307.415 318.562 307.415 Q 318.461 307.415 318.345 307.444 Z M 319.65 300.426 Q 319.592 300.745 319.519 301.18 Q 319.447 301.615 319.36 302.094 Q 319.273 302.572 319.171 303.036 Q 319.07 303.5 319.012 303.848 Q 319.65 303.732 320.288 303.529 Q 320.926 303.326 321.433 303.08 Q 321.941 302.833 322.245 302.543 Q 322.55 302.253 322.55 301.905 Q 322.55 301.47 322.289 301.195 Q 322.028 300.919 321.607 300.745 Q 321.187 300.571 320.737 300.499 Q 320.288 300.426 319.94 300.426 L 319.65 300.426 Z" transform="matrix(0.825834, 0, 0, 0.997097, -232.673386, -50.016068)" style="fill: rgb(255, 254, 249); stroke: rgb(0, 0, 0); stroke-miterlimit: 9; stroke-width: 1.09713px; white-space: pre;"/>
    <path d="M 340.509 302.05 Q 340.509 304.428 340.002 306.531 Q 339.494 308.633 338.653 310.388 Q 337.812 312.142 336.696 313.52 Q 335.579 314.897 334.361 315.869 Q 333.143 316.84 331.896 317.348 Q 330.649 317.855 329.518 317.855 Q 328.561 317.855 327.778 317.493 Q 326.995 317.13 326.415 316.42 Q 325.835 315.709 325.502 314.593 Q 325.168 313.476 325.168 311.91 Q 325.168 310.286 325.574 308.488 Q 325.98 306.69 326.676 304.921 Q 327.372 303.152 328.387 301.557 Q 329.402 299.962 330.62 298.73 Q 331.838 297.497 333.23 296.772 Q 334.622 296.047 336.13 296.047 Q 337.435 296.047 338.291 296.584 Q 339.146 297.12 339.625 297.976 Q 340.103 298.831 340.306 299.904 Q 340.509 300.977 340.509 302.05 Z M 329.489 311.156 Q 329.489 311.475 329.605 311.823 Q 329.721 312.171 329.924 312.432 Q 330.127 312.693 330.432 312.882 Q 330.736 313.07 331.084 313.07 Q 332.389 313.07 333.404 312.171 Q 334.419 311.272 335.086 309.967 Q 335.753 308.662 336.116 307.183 Q 336.478 305.704 336.478 304.486 Q 336.478 304.138 336.435 303.732 Q 336.391 303.326 336.261 302.978 Q 336.13 302.63 335.855 302.384 Q 335.579 302.137 335.115 302.137 Q 334.187 302.137 333.404 302.601 Q 332.621 303.065 331.998 303.834 Q 331.374 304.602 330.91 305.574 Q 330.446 306.545 330.113 307.546 Q 329.779 308.546 329.634 309.503 Q 329.489 310.46 329.489 311.156 Z" transform="matrix(0.825834, 0, 0, 0.997097, -232.673386, -50.016068)" style="fill: rgb(255, 254, 249); stroke: rgb(0, 0, 0); stroke-miterlimit: 9; stroke-width: 1.09713px; white-space: pre;"/>
    <path d="M 338.7 317.884 Q 339.57 313.708 340.353 309.793 Q 340.643 308.111 340.976 306.313 Q 341.31 304.515 341.6 302.761 Q 341.89 301.006 342.122 299.397 Q 342.354 297.787 342.47 296.482 Q 342.847 296.511 343.108 296.511 Q 343.369 296.511 343.717 296.511 Q 344.123 296.511 344.703 296.497 Q 345.283 296.482 345.863 296.453 Q 346.443 296.424 347.11 296.395 Q 347.516 298.425 347.835 300.31 Q 348.154 301.963 348.487 303.703 Q 348.821 305.443 349.082 306.661 Q 349.198 306.081 349.343 305.313 Q 349.488 304.544 349.662 303.703 Q 349.836 302.862 349.995 302.007 Q 350.155 301.151 350.329 300.31 Q 350.735 298.425 351.17 296.424 L 354.708 295.989 Q 353.722 300.426 352.968 304.399 Q 352.62 306.11 352.286 307.865 Q 351.953 309.619 351.663 311.229 Q 351.373 312.838 351.17 314.216 Q 350.967 315.593 350.851 316.521 Q 350.764 316.521 350.169 316.652 Q 349.575 316.782 348.806 316.956 Q 348.038 317.13 347.269 317.304 Q 346.501 317.478 346.124 317.623 Q 345.95 315.303 345.747 313.215 Q 345.66 312.316 345.558 311.374 Q 345.457 310.431 345.341 309.561 Q 345.225 308.691 345.109 307.937 Q 344.993 307.183 344.877 306.632 Q 344.79 307.183 344.645 307.908 Q 344.5 308.633 344.355 309.445 Q 344.21 310.257 344.065 311.142 Q 343.92 312.026 343.746 312.838 Q 343.369 314.781 342.934 316.898 Z" transform="matrix(0.825834, 0, 0, 0.997097, -232.673386, -50.016068)" style="fill: rgb(255, 254, 249); stroke: rgb(0, 0, 0); stroke-miterlimit: 9; stroke-width: 1.09713px; white-space: pre;"/>
    <path d="M 363.727 312.084 Q 363.321 313.737 362.581 314.897 Q 361.842 316.057 360.841 316.811 Q 359.841 317.565 358.71 317.913 Q 357.579 318.261 356.448 318.261 Q 355.781 318.261 355.085 318.044 Q 354.389 317.826 353.838 317.391 Q 353.287 316.956 352.924 316.289 Q 352.562 315.622 352.562 314.723 Q 352.562 314.607 352.562 314.491 Q 352.562 314.375 352.591 314.259 Q 352.707 313.07 352.968 311.388 Q 353.229 309.706 353.519 307.879 Q 353.809 306.052 354.157 304.211 Q 354.505 302.369 354.78 300.861 Q 355.056 299.353 355.259 298.353 Q 355.462 297.352 355.52 297.12 Q 356.129 297.062 356.97 296.975 Q 357.811 296.888 358.536 296.83 Q 359.435 296.743 360.305 296.656 Q 359.551 300.165 358.971 303.007 Q 358.71 304.225 358.463 305.443 Q 358.217 306.661 357.999 307.676 Q 357.782 308.691 357.622 309.431 Q 357.463 310.17 357.361 310.634 Q 357.26 311.098 357.129 311.809 Q 356.999 312.519 356.999 313.099 Q 356.999 313.563 357.231 313.868 Q 357.463 314.172 357.811 314.172 Q 358.304 314.172 358.623 313.781 Q 358.942 313.389 359.159 312.838 Q 359.377 312.287 359.478 311.722 Q 359.58 311.156 359.667 310.837 Q 359.841 309.996 360.058 308.967 Q 360.276 307.937 360.493 306.821 Q 360.711 305.704 360.928 304.544 Q 361.146 303.384 361.349 302.282 Q 361.842 299.73 362.306 297.004 L 366.714 296.714 Q 366.714 296.714 366.569 297.468 Q 366.424 298.222 366.192 299.469 Q 365.96 300.716 365.684 302.311 Q 365.409 303.906 365.061 305.632 Q 364.713 307.357 364.379 309.025 Q 364.046 310.692 363.727 312.084 Z" transform="matrix(0.825834, 0, 0, 0.997097, -232.673386, -50.016068)" style="fill: rgb(255, 254, 249); stroke: rgb(0, 0, 0); stroke-miterlimit: 9; stroke-width: 1.09713px; white-space: pre;"/>
    <path d="M 376.645 310.576 Q 376.645 312.2 376.021 313.52 Q 375.398 314.839 374.339 315.796 Q 373.281 316.753 371.845 317.275 Q 370.41 317.797 368.757 317.797 Q 367.597 317.797 366.437 317.174 Q 365.277 316.55 364.204 315.187 L 366.35 310.982 Q 366.553 311.359 366.959 311.751 Q 367.365 312.142 367.872 312.432 Q 368.38 312.722 368.887 312.911 Q 369.395 313.099 369.801 313.099 Q 370.149 313.099 370.526 312.983 Q 370.903 312.867 371.222 312.635 Q 371.541 312.403 371.729 312.099 Q 371.918 311.794 371.918 311.388 Q 371.918 310.692 371.468 310.098 Q 371.019 309.503 370.352 308.967 Q 369.685 308.43 368.902 307.879 Q 368.119 307.328 367.466 306.719 Q 366.814 306.11 366.35 305.356 Q 365.886 304.602 365.886 303.674 Q 365.886 302.166 366.785 300.861 Q 367.684 299.556 369.032 298.614 Q 370.381 297.671 371.976 297.12 Q 373.571 296.569 374.992 296.569 Q 375.775 296.569 376.471 296.758 Q 377.167 296.946 377.674 297.367 Q 378.182 297.787 378.486 298.425 Q 378.791 299.063 378.791 300.02 Q 378.791 300.426 378.718 300.832 Q 378.646 301.238 378.588 301.702 L 374.383 302.92 Q 374.441 302.688 374.484 302.456 Q 374.528 302.224 374.528 301.992 Q 374.528 301.122 374.223 300.731 Q 373.919 300.339 373.426 300.339 Q 373.194 300.339 372.86 300.513 Q 372.527 300.687 372.193 300.963 Q 371.86 301.238 371.628 301.615 Q 371.396 301.992 371.396 302.427 Q 371.396 303.123 371.787 303.587 Q 372.179 304.051 372.759 304.457 Q 373.339 304.863 374.02 305.284 Q 374.702 305.704 375.282 306.371 Q 375.862 307.038 376.253 308.039 Q 376.645 309.039 376.645 310.576 Z" transform="matrix(0.825834, 0, 0, 0.997097, -232.673386, -50.016068)" style="fill: rgb(255, 254, 249); stroke: rgb(0, 0, 0); stroke-miterlimit: 9; stroke-width: 1.09713px; white-space: pre;"/>
  </g>
</svg>