<?xml version="1.0" encoding="utf-8"?>
<svg viewBox="-2330.123 40.425 965.724 948.583" width="965.724" height="948.583" xmlns="http://www.w3.org/2000/svg">
  <g transform="matrix(5.018835, 0, 0, 5.09525, -6112.176758, -552.493958)" style="">
    <title>SPIN_BUTTON_ACTIVE</title>
    <ellipse style="opacity: 0.35; stroke-width: 2px; stroke: rgb(153, 136, 118); fill: rgb(255, 234, 97); fill-opacity: 0.67;" cx="849.782" cy="209.452" rx="96.21" ry="93.085"/>
    <ellipse style="stroke: rgb(0, 0, 0); fill: rgb(255, 234, 97);" cx="848.887" cy="210.052" rx="88.937" ry="85.238"/>
    <path d="M 857.305 252.128 L 847.301 269.31 L 872.698 270.235 L 898.091 271.161 L 886.614 246.33 L 875.134 221.501 L 865.058 238.809 C 850.125 229.3 832.644 226.472 815.512 230.868 C 797.455 235.5 781.951 247.603 771.856 264.94 L 783.706 273.218 C 799.754 245.655 832.25 236.582 857.305 252.128 Z" style="" transform="matrix(-0.948738, -0.316064, 0.316064, -0.948738, 1548.96307, 745.943828)"/>
    <path d="M 916.585 147.026 C 900.58 172.605 868.096 181.026 843.017 166.598 L 852.996 150.654 L 827.601 149.794 L 802.206 148.935 L 813.718 171.978 L 825.233 195.018 L 835.283 178.961 C 845.627 185.069 857.19 188.205 869.004 188.205 C 874.261 188.205 879.569 187.584 884.842 186.329 C 902.893 182.029 918.379 170.798 928.45 154.707 L 916.585 147.026 Z" style="" transform="matrix(-0.948738, -0.316064, 0.316064, -0.948738, 1632.243559, 606.776042)"/>
  </g>
</svg>