<?xml version="1.0" encoding="utf-8"?>
<svg viewBox="1349.624 1057.587 201.416 286.644" width="201.416" height="286.644" xmlns="http://www.w3.org/2000/svg">
  <g transform="matrix(8.757238, 0, 0, 9.398156, 1257.673096, 973.003113)" style="">
    <title>XP</title>
    <path d="M 22,9 C 19.79,9 18,10.79 18,13 C 18,13.89 18.29,14.71 18.78,15.38 C 16.83,16.5 15.5,18.59 15.5,21 C 15.5,23.03 16.44,24.84 17.91,26.03 C 14.91,27.09 10.5,31.58 10.5,39.5 L 33.5,39.5 C 33.5,31.58 29.09,27.09 26.09,26.03 C 27.56,24.84 28.5,23.03 28.5,21 C 28.5,18.59 27.17,16.5 25.22,15.38 C 25.71,14.71 26,13.89 26,13 C 26,10.79 24.21,9 22,9 z " style="opacity: 1; fill-opacity: 1; fill-rule: nonzero; stroke-width: 1.5; stroke-miterlimit: 4; stroke-dasharray: none; stroke-opacity: 1; paint-order: fill; stroke-linejoin: round; stroke-linecap: round; fill: rgb(255, 234, 97); stroke: rgb(0, 0, 0);"/>
  </g>
</svg>