<?xml version="1.0" encoding="utf-8"?>
<svg viewBox="987.726 1060.587 232.121 281.945" width="232.121" height="281.945" xmlns="http://www.w3.org/2000/svg">
  <g style="opacity: 1; fill-opacity: 1; fill-rule: evenodd; stroke: rgb(0, 0, 0); stroke-width: 1.5; stroke-linecap: round; stroke-linejoin: round; stroke-miterlimit: 4; stroke-dasharray: none; stroke-opacity: 1;" transform="matrix(8.597063, 0, 0, 9.398156, 910.352051, 976.003113)">
    <title>XR</title>
    <path d="M 9,39 L 36,39 L 36,36 L 9,36 L 9,39 z " style="paint-order: fill; fill: rgb(255, 234, 97);"/>
    <path d="M 12.5,32 L 14,29.5 L 31,29.5 L 32.5,32 L 12.5,32 z " style="paint-order: fill; fill: rgb(255, 234, 97);"/>
    <path d="M 12,36 L 12,32 L 33,32 L 33,36 L 12,36 z " style="paint-order: fill; fill: rgb(255, 234, 97);"/>
    <path d="M 14,29.5 L 14,16.5 L 31,16.5 L 31,29.5 L 14,29.5 z " style="paint-order: fill; fill: rgb(255, 234, 97);"/>
    <path d="M 14,16.5 L 11,14 L 34,14 L 31,16.5 L 14,16.5 z " style="paint-order: fill; fill: rgb(255, 234, 97);"/>
    <path d="M 11,14 L 11,9 L 15,9 L 15,11 L 20,11 L 20,9 L 25,9 L 25,11 L 30,11 L 30,9 L 34,9 L 34,14 L 11,14 z " style="paint-order: fill; fill: rgb(255, 234, 97);"/>
    <path d="M 12,35.5 L 33,35.5 L 33,35.5" style="stroke-width: 1; paint-order: fill; fill: rgb(255, 234, 97);"/>
    <path d="M 13,31.5 L 32,31.5" style="stroke-width: 1; paint-order: fill; fill: rgb(255, 234, 97);"/>
    <path d="M 14,29.5 L 31,29.5" style="stroke-width: 1; paint-order: fill; fill: rgb(255, 234, 97);"/>
    <path d="M 14,16.5 L 31,16.5" style="stroke-width: 1; paint-order: fill; fill: rgb(255, 234, 97);"/>
    <path d="M 11,14 L 34,14" style="stroke-width: 1; paint-order: fill; fill: rgb(255, 234, 97);"/>
  </g>
</svg>