<?xml version="1.0" encoding="utf-8"?>
<svg viewBox="0 0 500 500" width="500" height="500" xmlns="http://www.w3.org/2000/svg">
  <g>
    <g transform="matrix(3.390818, 0, 0, 3.494108, 5813.341309, 572.275024)" style="">
      <title>WILD SYMBOL - 1</title>
      <rect x="-1835.42" y="-722.172" width="143.098" height="147.457" rx="15" ry="15" style="fill-rule: evenodd; stroke-width: 2px; fill-opacity: 0; fill: rgb(179, 193, 86); stroke: rgb(236, 222, 63); stroke-opacity: 0.67;" transform="matrix(0, 1, -1, 0, -2289.151123, 1671.637207)"/>
      <rect x="-1712.861" y="-162.241" width="144.882" height="140.175" rx="15" ry="15" style="fill-rule: evenodd; fill-opacity: 0.71; fill: rgb(14, 6, 6); stroke-width: 2px; stroke: rgb(238, 209, 136);"/>
      <path d="M -640.398 -779.942 L -638.194 -800.532 Q -636.831 -800.59 -635.627 -800.807 Q -634.424 -801.025 -633.235 -801.112 Q -633.235 -801.083 -633.322 -800.517 Q -633.409 -799.952 -633.554 -799.038 Q -633.699 -798.125 -633.873 -796.979 Q -634.047 -795.834 -634.38 -793.833 Q -634.714 -791.832 -635.265 -788.294 L -634.83 -788.294 Q -634.076 -790.962 -633.583 -792.658 Q -633.09 -794.355 -632.785 -795.413 Q -632.481 -796.472 -632.205 -797.458 Q -631.93 -798.444 -631.683 -799.285 Q -631.437 -800.126 -631.292 -800.706 L -631.031 -800.706 Q -630.509 -800.706 -629.972 -800.764 Q -629.436 -800.822 -628.957 -800.894 Q -628.479 -800.967 -627.957 -801.083 Q -628.015 -800.822 -628.087 -800.01 Q -628.16 -799.198 -628.276 -798.052 Q -628.392 -796.907 -628.508 -795.529 Q -628.624 -794.152 -628.74 -792.832 Q -628.856 -791.513 -628.957 -790.324 Q -629.059 -789.135 -629.146 -788.294 L -628.624 -788.294 L -625.869 -800.764 Q -624.883 -800.909 -623.926 -801.025 Q -623.085 -801.141 -622.186 -801.257 Q -621.287 -801.373 -620.591 -801.518 Q -621.026 -800.3 -621.461 -798.806 Q -621.896 -797.313 -622.36 -795.66 Q -622.824 -794.007 -623.244 -792.325 Q -623.665 -790.643 -624.071 -789.077 Q -624.999 -785.365 -625.869 -781.45 L -632.423 -780.348 L -631.147 -791.542 L -631.495 -791.542 L -634.366 -781.015 Z" transform="matrix(2.263773, 0, 0, 2.190237, -240.849274, 1634.430054)" style="fill: rgb(255, 234, 97); white-space: pre;"/>
      <path d="M -619.586 -780.638 Q -619.847 -780.638 -620.601 -780.565 Q -621.355 -780.493 -622.167 -780.391 Q -622.979 -780.29 -623.632 -780.203 Q -624.284 -780.116 -624.342 -780.087 Q -623.994 -781.334 -623.646 -782.856 Q -623.298 -784.379 -622.936 -786.046 Q -622.573 -787.714 -622.24 -789.425 Q -621.906 -791.136 -621.587 -792.731 Q -620.862 -796.443 -620.166 -800.358 L -615.642 -801.083 Q -616.396 -797.197 -617.15 -793.456 Q -617.469 -791.861 -617.803 -790.15 Q -618.136 -788.439 -618.441 -786.757 Q -618.745 -785.075 -619.05 -783.494 Q -619.354 -781.914 -619.586 -780.638 Z" transform="matrix(2.263773, 0, 0, 2.190237, -240.849274, 1634.430054)" style="fill: rgb(255, 234, 97); white-space: pre;"/>
      <path d="M -610.363 -780.986 Q -611.262 -780.986 -612.262 -780.928 Q -613.263 -780.87 -614.278 -780.754 Q -615.293 -780.638 -616.264 -780.449 Q -617.236 -780.261 -618.019 -780 Q -617.845 -781.305 -617.613 -782.9 Q -617.381 -784.495 -617.076 -786.206 Q -616.772 -787.917 -616.467 -789.657 Q -616.163 -791.397 -615.844 -792.992 Q -615.119 -796.791 -614.307 -800.735 L -609.232 -801.402 Q -610.015 -798.038 -610.74 -794.848 Q -611.059 -793.485 -611.378 -792.02 Q -611.697 -790.556 -611.987 -789.164 Q -612.277 -787.772 -612.509 -786.467 Q -612.741 -785.162 -612.886 -784.147 Q -612.161 -784.205 -611.334 -784.219 Q -610.508 -784.234 -609.87 -784.234 Q -609.841 -783.683 -609.783 -783.146 Q -609.725 -782.61 -609.652 -782.175 Q -609.58 -781.74 -609.536 -781.406 Q -609.493 -781.073 -609.464 -780.957 Q -609.696 -780.957 -609.913 -780.971 Q -610.131 -780.986 -610.363 -780.986 Z" transform="matrix(2.263773, 0, 0, 2.190237, -240.849274, 1634.430054)" style="fill: rgb(255, 234, 97); white-space: pre;"/>
      <path d="M -594.851 -794.877 Q -594.851 -793.369 -595.286 -791.672 Q -595.721 -789.976 -596.504 -788.308 Q -597.287 -786.641 -598.432 -785.118 Q -599.578 -783.596 -601.028 -782.45 Q -602.478 -781.305 -604.203 -780.609 Q -605.929 -779.913 -607.872 -779.913 Q -608.278 -779.913 -608.684 -779.956 Q -609.09 -780 -609.496 -780.058 Q -608.713 -784.06 -607.959 -787.859 Q -607.669 -789.454 -607.35 -791.179 Q -607.031 -792.905 -606.741 -794.587 Q -606.451 -796.269 -606.175 -797.806 Q -605.9 -799.343 -605.726 -800.59 Q -604.479 -800.822 -603.203 -801.025 Q -601.927 -801.228 -600.593 -801.228 Q -599.027 -801.228 -597.939 -800.735 Q -596.852 -800.242 -596.17 -799.372 Q -595.489 -798.502 -595.17 -797.342 Q -594.851 -796.182 -594.851 -794.877 Z M -601.695 -797.139 Q -602.014 -795.428 -602.362 -793.862 Q -602.71 -792.296 -603.058 -790.701 Q -603.406 -789.106 -603.754 -787.366 Q -604.102 -785.626 -604.421 -783.567 Q -603.725 -784.031 -603.072 -784.828 Q -602.42 -785.626 -601.84 -786.67 Q -601.26 -787.714 -600.781 -788.874 Q -600.303 -790.034 -599.955 -791.136 Q -599.607 -792.238 -599.418 -793.195 Q -599.23 -794.152 -599.23 -794.848 Q -599.23 -795.921 -599.824 -796.53 Q -600.419 -797.139 -601.695 -797.139 Z" transform="matrix(2.263773, 0, 0, 2.190237, -240.849274, 1634.430054)" style="fill: rgb(255, 234, 97); white-space: pre;"/>
    </g>
  </g>
</svg>